<svg xmlns="http://www.w3.org/2000/svg" viewBox="0 0 32.16 33.68"><defs><style>.cls-1,.cls-2,.cls-4{fill:#f5f5f5;stroke:#355c7d;stroke-miterlimit:10;}.cls-1{stroke-width:0.69px;}.cls-2{stroke-width:0.71px;}.cls-3{fill:#355c7d;}.cls-4{stroke-width:3.54px;}</style></defs><title>Asset 9</title><g id="Layer_2" data-name="Layer 2"><g id="second_page" data-name="second page"><path class="cls-1" d="M7.9,25.63h0a3.37,3.37,0,0,1-3.1-2.58L.46,7.28C.05,5.79.78,4.5,2.08,4.42h0A3.37,3.37,0,0,1,5.18,7L9.52,22.76C9.93,24.26,9.2,25.55,7.9,25.63Z"/><path class="cls-2" d="M13.64,26.19h0a4.26,4.26,0,0,1-4.05-3.13L4.2,3.92C3.68,2.08,4.65.48,6.36.36h0a4.27,4.27,0,0,1,4.06,3.13l5.39,19.14C16.33,24.47,15.35,26.07,13.64,26.19Z"/><rect class="cls-3" x="2.89" y="8.3" width="29.26" height="22.64" rx="5.03"/><line class="cls-4" x1="11.33" y1="30.59" x2="11.33" y2="33.68"/><line class="cls-4" x1="23.37" y1="30.36" x2="23.37" y2="33.46"/></g></g></svg>