<svg xmlns="http://www.w3.org/2000/svg" viewBox="0 0 4.8 10.16"><title>Asset 32</title><g id="Layer_2" data-name="Layer 2"><g id="Layer_1-2" data-name="Layer 1"><path d="M1.08,7.23A1.35,1.35,0,0,1,.15,5.9,1.43,1.43,0,0,1,1,4.45L.78,4.21A2.73,2.73,0,0,1,1.12.45a1.57,1.57,0,0,1,2.11.2c.09.08.14.06.2,0A1.45,1.45,0,0,1,4.09,0c.39-.14.73.28.7.86,0,.27-.14.5-.29.54s-.33-.09-.41-.37S3.86.61,3.63.93c0,0,0,.07-.06.11a2.88,2.88,0,0,1,.13.31,2.68,2.68,0,0,1-.46,2.94A1.7,1.7,0,0,1,2,4.84,5.15,5.15,0,0,0,1,4.92c-.24,0-.36.3-.36.63s.08.44.24.5a1.32,1.32,0,0,0,.48.09c.46,0,.93,0,1.39,0a2.27,2.27,0,0,1,.72.16c1,.4,1,2.05.47,2.83a2,2,0,0,1-1.26,1A2.76,2.76,0,0,1,1,10,1.5,1.5,0,0,1,.26,9.4,1.39,1.39,0,0,1,.42,7.59a2.5,2.5,0,0,1,.5-.29A.62.62,0,0,1,1.08,7.23Zm2-4.77a2.79,2.79,0,0,0-.18-1.11c-.37-1-1.29-1-1.64,0a3.29,3.29,0,0,0,.05,2.41c.36.86,1.17.85,1.55,0A3.22,3.22,0,0,0,3.06,2.46ZM2.44,7.22c-.27,0-.46,0-.64.06A1.23,1.23,0,0,0,1,7.66a1.19,1.19,0,0,0-.33.76,1,1,0,0,0,.42,1,1.93,1.93,0,0,0,1.82.1,1.21,1.21,0,0,0,.65-.6A1.18,1.18,0,0,0,3.5,7.62a.72.72,0,0,0-.34-.25C2.89,7.29,2.62,7.26,2.44,7.22Z"/></g></g></svg>