<svg xmlns="http://www.w3.org/2000/svg" viewBox="0 0 106.18 28.42"><defs><style>.cls-1,.cls-3{fill:#63a59e;stroke:#f0edda;stroke-miterlimit:10;}.cls-1{stroke-width:0px;}.cls-2{fill:#eb5771;}.cls-3{stroke-width:0px;}.cls-4{font-size:24.71px;font-family:MonotypeCorsiva, Monotype Corsiva;}</style></defs><title>Asset 2</title><g id="Layer_2" data-name="Layer 2"><g id="Layer_1-2" data-name="Layer 1"><path class="cls-1" d="M3.55,8.71c2.21,1.58,10.55,2.77,10.55,2.77S9.62,5,7.19,3.79C5.52,3,0,3.16,0,3.16S2.47,7.93,3.55,8.71Z"/><path class="cls-2" d="M26.28,12.37c-2,1.36-9,2.77-10.4.59s3.21-7.12,5.24-8.48A4.52,4.52,0,0,1,27.38,6,4.64,4.64,0,0,1,26.28,12.37Z"/><path class="cls-2" d="M3.89,14.29c2-1.31,8.85-2.62,10.23-.46s-3.24,7-5.25,8.27a4.44,4.44,0,0,1-6.13-1.53A4.55,4.55,0,0,1,3.89,14.29Z"/><path class="cls-3" d="M23.41,23.55c-2.35-1-6.86-7.9-6.86-7.9s7.77,0,9.87,1.42c1.45,1,3.53,6.19,3.53,6.19S24.57,24.05,23.41,23.55Z"/><path class="cls-2" d="M17,24.76c-1.5-2-3.51-8.79-1.55-10.34s7.15,2.78,8.65,4.72a4.57,4.57,0,0,1-.84,6.34A4.41,4.41,0,0,1,17,24.76Z"/><path class="cls-2" d="M13.89,2c1.33,2.07,2.76,9.05.67,10.43S7.66,9.05,6.33,7A4.54,4.54,0,0,1,7.7.75,4.44,4.44,0,0,1,13.89,2Z"/><text class="cls-4" transform="translate(28.13 20.84) scale(1.17 1)">KOZY </text></g></g></svg>