<svg xmlns="http://www.w3.org/2000/svg" viewBox="0 0 34.12 34.64"><defs><style>.cls-1,.cls-3{fill:#f5f5f5;stroke:#355c7d;stroke-miterlimit:10;}.cls-1{stroke-width:0.69px;}.cls-2{fill:#355c7d;}.cls-3{stroke-width:3.94px;}</style></defs><title>Asset 7</title><g id="Layer_2" data-name="Layer 2"><g id="second_page" data-name="second page"><path class="cls-1" d="M16,.35h2.18a7.57,7.57,0,0,1,7.57,7.57V22.25a0,0,0,0,1,0,0H8.4a0,0,0,0,1,0,0V7.92A7.57,7.57,0,0,1,16,.35Z"/><path class="cls-2" d="M34.12,11.13v15.4a4.32,4.32,0,0,1-1.23,3,4.17,4.17,0,0,1-3,1.26H6.33a3.79,3.79,0,0,1-1.07-.15,3.67,3.67,0,0,1-1.06.15A4.26,4.26,0,0,1,0,26.53V11.13A4.25,4.25,0,0,1,4.2,6.86a4.13,4.13,0,0,1,3,1.26,4.28,4.28,0,0,1,1.23,3V22.25H25.72V11.13a4.25,4.25,0,0,1,4.2-4.27,4.13,4.13,0,0,1,3,1.26A4.28,4.28,0,0,1,34.12,11.13Z"/><rect class="cls-1" x="6.16" y="17.59" width="21.52" height="7.37" rx="3.13"/><line class="cls-3" x1="8.4" y1="30.8" x2="8.4" y2="34.64"/><line class="cls-3" x1="25.72" y1="30.8" x2="25.72" y2="34.64"/></g></g></svg>