<svg xmlns="http://www.w3.org/2000/svg" viewBox="0 0 9.95 7.89"><defs><style>.cls-1{fill:#2ba7df;}.cls-2{fill:#23a9e1;}.cls-3{fill:#f7fcfc;}.cls-4{fill:#eef8fa;}.cls-5{fill:#ebf7fb;}.cls-6{fill:#d0edf5;}.cls-7{fill:#eef8fb;}.cls-8{fill:#e6f5f8;}.cls-9{fill:#11aae2;}.cls-10{fill:#ecf7f8;}.cls-11{fill:#20ace0;}.cls-12{fill:#e6f5fa;}.cls-13{fill:#b5e4fa;}.cls-14{fill:#eef8f8;}.cls-15{fill:#eff8f6;}.cls-16{fill:#e4f4f4;}.cls-17{fill:#b3dcf5;}.cls-18{fill:#17aedb;}.cls-19{fill:#c6e9f6;}.cls-20{fill:#e5f4f9;}.cls-21{fill:#f5f9fc;}.cls-22{fill:#20a7d8;}.cls-23{fill:#19a4db;}.cls-24{fill:#2dace3;}.cls-25{fill:#2ca4dd;}.cls-26{fill:#84ccdf;}.cls-27{fill:#91d8ef;}.cls-28{fill:#f7f9fd;}.cls-29{fill:#c9eaf7;}.cls-30{fill:#27a5de;}.cls-31{fill:#fcfdf7;}.cls-32{fill:#f0f4fb;}.cls-33{fill:#aee2f8;}.cls-34{fill:#f7fcfd;}.cls-35{fill:#c4e8f5;}.cls-36{fill:#1cade4;}.cls-37{fill:#c8eaf4;}.cls-38{fill:#ecf7f9;}.cls-39{fill:#ccebf6;}.cls-40{fill:#b0e1ee;}.cls-41{fill:#ceedfc;}.cls-42{fill:#daf1f7;}.cls-43{fill:#67c5e7;}.cls-44{fill:#d4edf2;}.cls-45{fill:#51b6e7;}.cls-46{fill:#fafcf8;}.cls-47{fill:#dbf0f6;}.cls-48{fill:#e2f3f8;}.cls-49{fill:#c4e8f4;}.cls-50{fill:#24a5de;}.cls-51{fill:#e6f5f5;}.cls-52{fill:#f1f9fa;}.cls-53{fill:#ecf7fa;}.cls-54{fill:#dbf1f9;}.cls-55{fill:#fcfdf2;}.cls-56{fill:#33b4dd;}.cls-57{fill:#fbfcf6;}.cls-58{fill:#a4def3;}.cls-59{fill:#d2eef7;}.cls-60{fill:#d9eff4;}.cls-61{fill:#ccebf5;}.cls-62{fill:#ebf7f8;}.cls-63{fill:#fefdf4;}.cls-64{fill:#f2f9f9;}.cls-65{fill:#a1ddf9;}.cls-66{fill:#43b5e8;}.cls-67{fill:#b3e2f1;}.cls-68{fill:#c2e7f3;}.cls-69{fill:#fcfdf6;}.cls-70{fill:#ebf6f5;}.cls-71{fill:#fefdf3;}.cls-72{fill:#39aee3;}.cls-73{fill:#fcfdf4;}.cls-74{fill:#fcfdf5;}.cls-75{fill:#eff8fa;}.cls-76{fill:#28a8e0;}.cls-77{fill:#1badda;}.cls-78{fill:#d9f0f7;}.cls-79{fill:#fcfcf1;}.cls-80{fill:#dcf1f8;}.cls-81{fill:#42b4e7;}.cls-82{fill:#f9fae9;}.cls-83{fill:#cbeaef;}.cls-84{fill:#fafbf0;}.cls-85{fill:#fcfcf0;}.cls-86{fill:#55bceb;}.cls-87{fill:#e9f7fc;}.cls-88{fill:#2390c2;}.cls-89{fill:#26a9e1;}.cls-90{fill:#f7faef;}.cls-91{fill:#f8fae8;}.cls-92{fill:#f8f8ef;}.cls-93{fill:#2ca8e0;}.cls-94{fill:#21aae1;}.cls-95{fill:#2caae1;}.cls-96{fill:#27a7df;}.cls-97{fill:#2da9e0;}.cls-98{fill:#26a8e0;}.cls-99{fill:#33a7df;}.cls-100{fill:#25a8e0;}.cls-101{fill:#1ca8e1;}.cls-102{fill:#1aaae2;}.cls-103{fill:#26a6de;}.cls-104{fill:#2fa6df;}.cls-105{fill:#18abe3;}.cls-106{fill:#2aa5de;}.cls-107{fill:#4caadf;}.cls-108{fill:#2ca6df;}.cls-109{fill:#4bade1;}.cls-110{fill:#27a9e1;}.cls-111{fill:#2bafd7;}.cls-112{fill:#349ed8;}.cls-113{fill:#21a9dc;}.cls-114{fill:#0dace3;}.cls-115{fill:#2aa9e1;}.cls-116{fill:#11a7df;}.cls-117{fill:#33b0e2;}.cls-118{fill:#2ea8e0;}.cls-119{fill:#26ade3;}.cls-120{fill:#24aadb;}.cls-121{fill:#15aedc;}.cls-122{fill:#4ebae0;}.cls-123{fill:#38a7df;}.cls-124{fill:#30a4dc;}.cls-125{fill:#39a1da;}.cls-126{fill:#1b9dd9;}.cls-127{fill:#27b6d8;}.cls-128{fill:#3bb2e1;}.cls-129{fill:#00abde;}.cls-130{fill:#22aee2;}.cls-131{fill:#1aaccf;}.cls-132{fill:#42b2e1;}.cls-133{fill:#1e94d2;}.cls-134{fill:#3fb7dd;}.cls-135{fill:#07a3d7;}.cls-136{fill:#109fd6;}.cls-137{fill:#05b2e5;}.cls-138{fill:#3ca4dc;}.cls-139{fill:#2fa6de;}.cls-140{fill:#29b1d2;}.cls-141{fill:#37afdf;}.cls-142{fill:#1597c5;}.cls-143{fill:#23a1db;}.cls-144{fill:#5dc0ee;}.cls-145{fill:#19ace4;}.cls-146{fill:#1a93d1;}.cls-147{fill:#03aad4;}.cls-148{fill:#e8f6fc;}.cls-149{fill:#30a5de;}.cls-150{fill:#3ba7de;}.cls-151{fill:#4ca9df;}.cls-152{fill:#3fb0e5;}.cls-153{fill:#1fa7e0;}.cls-154{fill:#27acd9;}.cls-155{fill:#61bfeb;}.cls-156{fill:#2aa7df;}.cls-157{fill:#10a9e0;}.cls-158{fill:#3fb5e7;}.cls-159{fill:#11aee1;}.cls-160{fill:#3fafdd;}.cls-161{fill:#5cbfe6;}.cls-162{fill:#5cbce1;}.cls-163{fill:#23a7e0;}.cls-164{fill:#16ace3;}.cls-165{fill:#08a5ca;}.cls-166{fill:#1ba6d9;}.cls-167{fill:#36a7df;}.cls-168{fill:#109fca;}.cls-169{fill:#2ca3dc;}.cls-170{fill:#36a2db;}.cls-171{fill:#1eb0e6;}.cls-172{fill:#52beed;}.cls-173{fill:#22addd;}.cls-174{fill:#3ba3dc;}.cls-175{fill:#179bd7;}.cls-176{fill:#35a2db;}.cls-177{fill:#38a0da;}.cls-178{fill:#3da2db;}.cls-179{fill:#43a0d9;}.cls-180{fill:#35a6de;}.cls-181{fill:#40a6de;}.cls-182{fill:#2dabe2;}</style></defs><title>Asset 33</title><g id="Layer_2" data-name="Layer 2"><g id="Layer_1-2" data-name="Layer 1"><path class="cls-1" d="M2.45,1.74a1.47,1.47,0,0,0,.28.14.59.59,0,0,1,.2.09c.1.08.24.08.36.14l.06.06c0,.11-.06.08-.12.08s-.07-.1-.15,0S3,2.19,3,2.14s0-.06-.08,0-.2,0-.23-.1a.13.13,0,0,0,0-.06l-.05,0a.09.09,0,0,0-.07,0A.31.31,0,0,1,2.3,2S2.24,2,2.24,2a.2.2,0,0,0,0,.17.27.27,0,0,1,.06.19c0,.11,0,.13.14.13s.47,0,.71,0,.11.12.11.21,0,.13.14.13H4.66c.18,0,.19,0,.18-.19a.29.29,0,0,0,0-.09c0-.08,0-.07.1,0s0,.07.09,0,0-.07,0-.1,0,0,0,0a.5.5,0,0,1,0-.34c.07,0,0,.08.09.1s0-.08,0-.13,0-.37,0-.55,0-.12.07-.13,0,0,0,.08c0,.23,0,.46,0,.7,0,.06,0,.1.09.1h.42a.1.1,0,0,0,.11-.11v-1a.08.08,0,0,0-.09-.09.22.22,0,0,1-.14,0s0,0,0,0a.1.1,0,0,1-.12,0A.28.28,0,0,1,5.34.85a.43.43,0,0,1,0-.11s0,0,0,0a.15.15,0,0,1,.16,0c.08,0,.1,0,.09-.07s0-.14.1-.17,0-.05.06-.06.09-.09.15,0,0,.18,0,.27,0,0,0,0,.25,0,.37,0,.1,0,.1-.09V.36c0-.07,0-.11-.12-.1a.2.2,0,0,1-.13,0c0-.07.06-.06.08-.09a.34.34,0,0,1,.17,0,2.58,2.58,0,0,1,.39,0c.13,0,.15,0,.15.14s0,.14.14.14a3.85,3.85,0,0,1,.48,0A.15.15,0,0,0,7.75.28a.88.88,0,0,1,.17,0H8c0,.07,0,.07.1.06s.1,0,.14.08a.42.42,0,0,0,.12.08s0,0,0,0,0,.11.1.1l.12,0h.07l.11,0s0,0,0,0,0,.06,0,.09a1.48,1.48,0,0,0,0,.21A.12.12,0,0,0,9,1,.27.27,0,0,1,9.1,1a0,0,0,0,1,0,0s0,0,0,0A.39.39,0,0,1,9,1.1c-.06,0-.1.07-.17.09s0,.08,0,.13q0,.51,0,1a3.53,3.53,0,0,1,0,.65c0,.07,0,.14,0,.22a1,1,0,0,1,0,.24.17.17,0,0,0,0,.1.21.21,0,0,1,0,.11A1.15,1.15,0,0,0,8.67,4a1.23,1.23,0,0,1-.12.26,1.5,1.5,0,0,1-.16.34c0,.06-.08.1-.05.16a2.11,2.11,0,0,1-.18.33.07.07,0,0,0,0,.05A.67.67,0,0,1,8,5.25c-.1.06-.14.16-.21.25s-.06.11-.14.15,0,.1-.08.13a.61.61,0,0,0-.16.16l0,0s0,.06-.06.09a.36.36,0,0,0-.11.1c-.12.12-.25.23-.38.34a.17.17,0,0,0-.11.09.11.11,0,0,1-.09.06c-.06,0-.09.09-.16.1s-.06,0-.08,0,0,0-.08,0h0l0,0h0s0,0,0,.06-.07,0-.08,0,0,0,0,0l0,0h-.1S6,7,6,7.06l-.08.05-.08,0a.5.5,0,0,0-.27,0c-.06,0-.08,0,0,.09s-.1.08-.16.1-.13,0-.18.07-.1,0-.14.06H5l-.21.06-.11,0-.1,0-.18,0a.17.17,0,0,0-.12,0H4.25A.86.86,0,0,0,4,7.7H3.92a3.1,3.1,0,0,0-.43,0,3.25,3.25,0,0,1-.54,0,.19.19,0,0,0-.16,0,1.82,1.82,0,0,1-.33,0c-.09,0-.18,0-.27,0a.15.15,0,0,0-.18,0l-.15,0s-.06,0,0,0a.62.62,0,0,1,.27,0c.13,0,.14,0,.14-.13a.68.68,0,0,0,0-.14c0-.1,0-.2,0-.3a.35.35,0,0,0,0-.33,0,0,0,0,1,0,0s.06,0,.08,0,.12,0,.11-.1v0s0,0,0,0a.12.12,0,0,1,.1,0s.05,0,.08,0,0,0,0,0,0,0,0,0l0,0a.28.28,0,0,0,.15-.08s.1,0,.14-.1h0L3,6.11s0-.05,0-.05L2.83,6a.23.23,0,0,1-.14,0,0,0,0,0,1,0-.06l0,0,0,0a.11.11,0,0,1-.08,0,0,0,0,0,1-.06,0s0,0,0-.08a.41.41,0,0,1-.19,0,.71.71,0,0,1-.25-.11s0,0,0-.07.07,0,.1,0,.1,0,.1-.07V4.93c0-.08-.06-.09-.13-.11s-.15,0-.22,0,0,0,0,0,.1,0,.15-.07,0,0,0,0-.22-.16-.38-.13a.08.08,0,0,1-.08,0,.15.15,0,0,0-.12,0h0s-.11-.08-.16-.13a.43.43,0,0,0-.13-.09.08.08,0,0,1,0-.05.4.4,0,0,1,0-.15,0,0,0,0,0,0-.06s0,0,0,0,0,.08,0,.12S1,4.08,1,4.06l0,0V4s0-.06,0-.09S.87,3.86.82,3.85s0,0,0-.05a.22.22,0,0,1,.14,0l.13,0c.12,0,.15,0,.15-.13V3.22s0-.06,0-.09,0-.07,0-.1l0,0s.06,0,.08,0,0,0,0,0,0,0,0,0a.14.14,0,0,1,0-.06c0-.08,0,0,0,0s0,0,0,0h0a.51.51,0,0,1,.27-.27.09.09,0,0,0,.09-.11c0-.06,0-.07-.1-.08s-.15,0-.18-.07c0-.28,0-.57,0-.85,0-.1.06-.12.21-.1h0c.09-.09.17,0,.25,0a1.76,1.76,0,0,0,.37.23l0,0h0Z"/><path class="cls-2" d="M1.9,4.77a2.58,2.58,0,0,0,.29,0c.07,0,.1,0,.1.12v.69c0,.15,0,.17-.19.11h0c-.09,0-.14-.06-.2-.1s0,0,0,0,0,0,0,0-.08,0-.11-.05L1.59,5.4l-.14-.16h0a.1.1,0,0,1,0-.05.11.11,0,0,1,0-.08c0-.13,0-.16-.12-.13s0,0,0,0,0-.11,0-.17.08,0,.12,0a.89.89,0,0,0,.23,0H1.8A.09.09,0,0,1,1.9,4.77Z"/><path class="cls-3" d="M5.6,7.32l0,0c.12,0,0,.12,0,.18s-.1,0-.14,0-.17,0-.2-.13A.47.47,0,0,1,5.6,7.32Z"/><path class="cls-4" d="M7.05,6.44,7,6.46a0,0,0,0,1,0,0v0c.09-.1.21-.18.3-.28a.23.23,0,0,1,.09-.08S7.41,6,7.42,6c.19-.19.34-.39.51-.59a0,0,0,0,1,.05,0,2.27,2.27,0,0,1-.26.35.28.28,0,0,1-.14.18l-.15.15a.17.17,0,0,1-.12.14c-.1,0-.13.15-.22.2S7.06,6.43,7.05,6.44Z"/><path class="cls-5" d="M8.76,3.66l0-.1c0-.12.06-.23.06-.36a1.8,1.8,0,0,1,.06-.32s0-.07.06-.07a3.11,3.11,0,0,1,0,.32s0,0,0,.05-.07.22-.07.33-.09.23-.09.36,0,0,0,.08-.05.16-.12.21h0A.55.55,0,0,1,8.65,4C8.69,3.88,8.72,3.76,8.76,3.66Z"/><path class="cls-6" d="M3.76,7.74a.53.53,0,0,1-.25,0H3.16a7.42,7.42,0,0,1-1.05-.08,2.73,2.73,0,0,1-.41-.1s0,0,0,0,.09,0,.14,0a6.3,6.3,0,0,0,1,.12,7.48,7.48,0,0,0,.82,0S3.73,7.7,3.76,7.74Z"/><path class="cls-7" d="M3.12,2a.74.74,0,0,1,.25,0l.4.12c.15,0,.31.06.45.1a.93.93,0,0,0,.23,0s.06,0,.08,0a.17.17,0,0,1-.12,0l-.5-.08c-.15,0-.3-.08-.44-.12l-.13,0h0s-.1,0-.14-.07S3.12,2.07,3.12,2Z"/><path class="cls-8" d="M.66,2.81a1.39,1.39,0,0,0,.55.12,1.61,1.61,0,0,1-.39-.44h0c.07,0,.09.08.13.12l.1.11.23.2h0s.06,0,.05.07-.05,0-.08,0A1.49,1.49,0,0,1,.9,3L.71,2.89s-.07,0-.07-.07Z"/><path class="cls-9" d="M2.14,1.6a1.62,1.62,0,0,1-.44-.27c-.07-.05-.11-.08-.17,0h0c-.07,0-.06,0-.05-.06s0-.06,0-.08,0-.06,0-.1h0a2.86,2.86,0,0,1,.3.22l0,0,0,0a.2.2,0,0,0,.09.06l0,0c0,.06.11.08.16.12S2.14,1.57,2.14,1.6Z"/><path class="cls-10" d="M2.61,6.38h0c0,.06-.13.05-.18.09h0A3.14,3.14,0,0,1,2,6.66l-.48.15H1.45a.11.11,0,0,1-.08,0c.06,0,.14,0,.2,0a4.57,4.57,0,0,0,.68-.26c.12-.06.25-.1.36-.16l0,0A0,0,0,0,1,2.61,6.38Z"/><path class="cls-11" d="M.63,2.82c.08.06.18.05.26.11l0,0H.78a.41.41,0,0,1-.19-.08c-.07,0-.09,0-.07.06V3a.22.22,0,0,1,0,.08.1.1,0,0,0,0,.09l0,.11a3.52,3.52,0,0,1,.15.42l0,0a3.26,3.26,0,0,1-.18-.38s0-.1,0-.16h0a2.15,2.15,0,0,1,0-.34c0-.1,0-.11.09-.07A.39.39,0,0,1,.63,2.82Z"/><path class="cls-3" d="M5.12,7.48a.19.19,0,0,1-.17.1.41.41,0,0,0-.19,0s.12,0,.1.07-.09,0-.13,0-.05,0-.06,0-.12,0-.19,0H4.34c.06-.08.15,0,.22-.07l.3-.07C4.94,7.53,5,7.46,5.12,7.48Z"/><path class="cls-12" d="M5.12,7.48l-.25.08v0h0s0,0,0,0l.16,0h0c.06,0,.13,0,.18-.07a5.28,5.28,0,0,0,.69-.29s0,0,.09,0-.12.06-.16.12,0,0,0,0l-.08,0a.18.18,0,0,0-.13.06c-.12,0-.22.09-.34.12Z"/><path class="cls-12" d="M5.3.73,5.5.56A2.45,2.45,0,0,1,5.91.25a.17.17,0,0,1,.1,0H6s0,.06-.08.08a1.81,1.81,0,0,0-.44.33.31.31,0,0,1-.11.09h0c0,.09-.08.19-.19.22a.06.06,0,0,1,0,0L5.28.78A0,0,0,0,1,5.3.73Z"/><path class="cls-13" d="M4.4,2.37h.16c.06,0,.12,0,.17,0h.14a.08.08,0,0,0,0-.1c0-.15,0-.3,0-.45s0-.08,0-.12h0s0,0,0,0a.76.76,0,0,1,0,.3.85.85,0,0,0,0,.32c0,.08,0,.1-.09.1s-.21,0-.31,0S4.43,2.44,4.4,2.37Z"/><path class="cls-14" d="M4.91,1.72h0A1.32,1.32,0,0,1,5.2.9v0s0,.05,0,.07A1.87,1.87,0,0,0,5,1.64S4.94,1.7,4.91,1.72Z"/><path class="cls-15" d="M7.64.12C7.78.1,7.9.2,8,.25a.6.6,0,0,1,.26.22h0L8,.31l-.1,0,0,0,0,0s-.1,0-.12-.06A0,0,0,0,1,7.64.12Z"/><path class="cls-16" d="M.5,1.78c0-.05,0-.12,0-.17A1.34,1.34,0,0,1,.48,1a.44.44,0,0,1,.1-.3v0a.25.25,0,0,1,0,.12,1.55,1.55,0,0,0-.07.43.49.49,0,0,0,0,.24s0,.07,0,.11a.17.17,0,0,0,0,.1A.11.11,0,0,1,.5,1.78Z"/><path class="cls-17" d="M9,2.81l0,.06a.14.14,0,0,1,0-.14,2.77,2.77,0,0,0,0-.41V2c0-.06,0-.11.08-.13s0,0,0,0V2c0,.13,0,.26,0,.39s0,.08,0,.11A2.11,2.11,0,0,0,9,2.81Z"/><path class="cls-18" d="M1.6,5.39c.1.05.15.17.26.22h0a2,2,0,0,0,.2.11c.07.1.19.11.29.16s0,0,0,0,0,0,0,0a.73.73,0,0,1-.22-.09l-.17-.1a1,1,0,0,1-.35-.31Z"/><path class="cls-19" d="M4.87,7.54v0l-.53.11h0c-.06.06-.15,0-.22,0l-.34,0H3.65c0-.05.05,0,.09,0H4a2.93,2.93,0,0,1,.29-.05h0l.33,0a.12.12,0,0,1,.1,0S4.82,7.51,4.87,7.54Z"/><path class="cls-20" d="M1.45,4.44h0a1,1,0,0,1,.3.12.07.07,0,0,1,0,.06,2,2,0,0,1-.71-.42l0,0h0c.05,0,.06.06.11.07l.11.08C1.32,4.37,1.41,4.38,1.45,4.44Z"/><path class="cls-21" d="M.58.68A.41.41,0,0,1,.71.38s.05,0,.07,0,.22.18.27.32H1C1,.68,1,.65.93.62A1.85,1.85,0,0,0,.79.48s0-.06-.06,0A.27.27,0,0,0,.66.59l0,.05s0,0-.05,0Z"/><path class="cls-22" d="M1.13,7.38a3,3,0,0,1-.61-.25,0,0,0,0,1,0,0,.4.4,0,0,1,.26.08,2.68,2.68,0,0,0,.3.12l0,0s.05,0,0,.06Z"/><path class="cls-23" d="M.37,7.05.17,7s-.05-.06,0-.06a2.54,2.54,0,0,0,.39,0,1.38,1.38,0,0,0,.29,0H1C.94,7,.94,7,.87,7H.49S.41,7,.38,7s0,0,0,0v0Z"/><path class="cls-24" d="M2.32,5.9h.05A.17.17,0,0,1,2.53,6h.06a.07.07,0,0,1,.1,0L3,6s.07,0,.08,0A.07.07,0,0,1,3,6.13H3s0-.07,0-.07A1.63,1.63,0,0,1,2.5,6h0s-.06,0-.09,0l0,0S2.32,5.93,2.32,5.9Z"/><path class="cls-25" d="M9.41.33,9.69.18s0,.05,0,.08a2.6,2.6,0,0,1-.1.25l0,.05a.07.07,0,0,1-.06,0,.11.11,0,0,1,0-.14A.24.24,0,0,0,9.6.31c-.07,0-.12.07-.2,0A0,0,0,0,1,9.41.33Z"/><path class="cls-26" d="M.88,6.91H.2c-.07,0,0,0,0,0s-.06,0-.09-.07a7.12,7.12,0,0,0,.8,0h0S.89,6.91.88,6.91Z"/><path class="cls-27" d="M7.64.12v0s-.1,0-.15,0A2.12,2.12,0,0,0,6.83.07a.22.22,0,0,1-.14,0s0,0,0,0H7A2.51,2.51,0,0,1,7.64.12Z"/><path class="cls-28" d="M7.58,5.9l.14-.18s0,0,0,0a.11.11,0,0,1,0,.08c0,.13,0,.13-.14.08Z"/><path class="cls-20" d="M1.56,4.71a.87.87,0,0,0,.36,0s.06,0,.07,0-.21.06-.32.07a.78.78,0,0,1-.37,0,0,0,0,0,1,0,0h0A.36.36,0,0,1,1.56,4.71Z"/><path class="cls-29" d="M2.5,6c.16,0,.32.06.49.07s0,0,0,.07-.06,0-.08.06h0s0,0-.06,0A.27.27,0,0,1,3,6.08,1.27,1.27,0,0,1,2.55,6S2.5,6,2.5,6Z"/><path class="cls-30" d="M8.63.65H8.55l0,0a.17.17,0,0,0-.1,0c-.05,0-.08-.05-.06-.09a0,0,0,0,1,0,0c0,.06.1,0,.15,0L8.89.53h0s0,0,0,0v0a.12.12,0,0,1-.11,0s0,0-.05,0h0Z"/><path class="cls-31" d="M3.16,7.83a.92.92,0,0,1,.37,0l0,0,0,0a.12.12,0,0,1-.08,0A1.36,1.36,0,0,0,3.16,7.83Z"/><path class="cls-32" d="M1.35.94l.1.12h0C1.29,1,1.21.89,1.1.8a.21.21,0,0,0,0-.06H1s0,0,0,0h0c.11,0,.14.15.23.2a.18.18,0,0,1,.07,0Z"/><path class="cls-33" d="M1.29,4.71h0s-.07,0-.06.07a.74.74,0,0,1,0,.14s0,0,0,0a.43.43,0,0,1,.13.21l0,.06A.61.61,0,0,1,1.25,5c0-.06,0-.14-.1-.19s0,0,0,0h0s0,0,0,0,.06,0,.1,0Z"/><path class="cls-12" d="M6.68,0V0c0,.07-.14,0-.21.06a2.82,2.82,0,0,1-.31.07h0A1,1,0,0,1,6.68,0Z"/><path class="cls-28" d="M7.31,6.19l.12-.14c.11.06,0,.13,0,.17S7.35,6.19,7.31,6.19Z"/><path class="cls-34" d="M1.56,4.71H1.29s.08,0,.11-.09.09-.06.09,0S1.54,4.68,1.56,4.71Z"/><path class="cls-35" d="M1.72,7.57h0a1.32,1.32,0,0,1-.51-.16,0,0,0,0,1,.06,0h0c.12,0,.25.07.37.11S1.72,7.53,1.72,7.57Z"/><path class="cls-36" d="M.82,3.81a.05.05,0,0,0,0,0c.05,0,.07.06.1.09A.13.13,0,0,1,1,4V4s0,0,0-.05A2.31,2.31,0,0,1,.7,3.7h0s.08,0,.08,0S.82,3.78.82,3.81Z"/><path class="cls-37" d="M8.16,5.06a2,2,0,0,1,.13-.25s0,0,0-.08a.14.14,0,0,1,.06-.12h0l0,0s0,0,0,.07A1.76,1.76,0,0,1,8.16,5.06Z"/><path class="cls-38" d="M.82,2.49a.46.46,0,0,1-.2-.36h0a2.31,2.31,0,0,1,.18.35Z"/><path class="cls-39" d="M1.6,5.41a2,2,0,0,0,.34.31c-.11,0-.17-.12-.26-.17a.09.09,0,0,1-.06-.06s-.06,0-.06-.1S1.59,5.4,1.6,5.41Z"/><path class="cls-40" d="M1.37,6.8h.08s0,0-.05,0a1.25,1.25,0,0,1-.51,0h0l.41-.06S1.35,6.82,1.37,6.8Z"/><path class="cls-41" d="M9.69,1.37c-.08.06-.12.16-.22.2s0,0,0,0,0,0,0,0l.06-.05,0-.05a.49.49,0,0,0,.12-.13s.05-.06.09-.05,0,0,0,0h0l0,0A.24.24,0,0,1,9.69,1.37Z"/><path class="cls-42" d="M1.43,1.06h0c.05,0,.06.09.13.06s0,0,0,0,.08.07.11.12.05,0,.05.05a2.28,2.28,0,0,1-.3-.21S1.42,1.08,1.43,1.06Z"/><path class="cls-43" d="M.64,2.13h0A2.06,2.06,0,0,1,.5,1.78V1.71h0s0,0,.05.07a1.52,1.52,0,0,0,.09.28S.67,2.11.64,2.13Z"/><path class="cls-44" d="M9.45,1.55l0,0a.87.87,0,0,1-.27.23s0,0,0,0,0-.06.06-.08a.81.81,0,0,0,.16-.16S9.43,1.53,9.45,1.55Z"/><path class="cls-45" d="M3.12,2c.06,0,.15,0,.21.09a0,0,0,0,1-.05,0A1.14,1.14,0,0,1,2.92,2S3,2,3,2Z"/><path class="cls-46" d="M1.62,5.49a.17.17,0,0,1,.06.06s0,.07-.05.07a.07.07,0,0,1-.07,0C1.51,5.51,1.61,5.52,1.62,5.49Z"/><path class="cls-47" d="M6.64,6.72h0s0,0,0-.06.07,0,.08-.06,0-.06.08,0,0,0,0,0,0,0,0,.05S6.69,6.72,6.64,6.72Z"/><path class="cls-48" d="M9,2.46V2.05S9,2,9,2v.41S9,2.44,9,2.46Z"/><path class="cls-49" d="M.44,2.81a1.47,1.47,0,0,1,0,.36s0-.09,0-.12,0-.11,0-.16V2.82S.43,2.8.44,2.81Z"/><path class="cls-50" d="M9.85,1s0,0,.06,0,0,0,0,.06-.05.12-.13.15,0,0,0,0,0-.08,0-.12S9.84,1,9.85,1Z"/><path class="cls-51" d="M2.63,6.35l0,0c.06,0,.16,0,.16-.15l.07,0c0,.06-.08.07-.11.11S2.68,6.38,2.63,6.35Z"/><path class="cls-52" d="M.44,2.81h0s0-.07,0-.09a.13.13,0,0,1,.14,0l.09.05h0a.31.31,0,0,1-.12,0C.45,2.73.44,2.76.44,2.81Z"/><path class="cls-53" d="M8.59,4.26c0,.08,0,.19-.12.25l0,0a1,1,0,0,1,.07-.18.08.08,0,0,1,.05,0Z"/><path class="cls-54" d="M9,1.21c.11,0,.21-.09.33-.05a0,0,0,0,1,0,0A.66.66,0,0,1,9,1.24S9,1.23,9,1.21Z"/><path class="cls-55" d="M4.48,7.67c.07,0,.13,0,.19,0S4.55,7.78,4.48,7.67Z"/><path class="cls-56" d="M8.94.53h0L9.22.41h0v0l-.07,0L9.1.51,9,.54S9,.54,8.94.53Z"/><path class="cls-57" d="M9.75,1.48a.06.06,0,0,1-.05.06s0,0,0-.06,0-.05,0,0S9.75,1.45,9.75,1.48Z"/><path class="cls-58" d="M2.45,1.74a.69.69,0,0,1-.28-.15A.76.76,0,0,1,2.45,1.74Z"/><path class="cls-59" d="M8,5.37l0,0c0-.07.07-.1.07-.16s.07-.08.11-.12A.6.6,0,0,1,8,5.37Z"/><path class="cls-60" d="M2,4.69s0,0-.06,0-.09,0-.14,0l0,0a.38.38,0,0,1,.26,0s0,0,0,.05Z"/><path class="cls-61" d="M3,2l-.1,0a1.74,1.74,0,0,1-.19-.1C2.85,1.87,2.93,2,3,2Z"/><path class="cls-62" d="M9.79,1.19A.57.57,0,0,0,9.91,1h0a.3.3,0,0,1-.16.22v0S9.77,1.2,9.79,1.19Z"/><path class="cls-63" d="M8.47,4.8a.05.05,0,0,1,0,.06s0,0,0-.07,0,0,0,0S8.47,4.78,8.47,4.8Z"/><path class="cls-64" d="M1.11.66A.15.15,0,0,0,1,.58c.06,0,.1,0,.12,0S1.14.62,1.11.66Z"/><path class="cls-65" d="M9,1.21H9s0,.05-.07.05-.1,0-.11,0,0-.06.08-.07,0,0,0,0S9,1.21,9,1.21Z"/><path class="cls-38" d="M9.35.85s.05.1-.06.08l0,0s0,0,0,0a.18.18,0,0,1,0-.07.06.06,0,0,1,.06,0Z"/><path class="cls-66" d="M9.3,1.17h0s.11,0,.16,0a.25.25,0,0,1,.12,0,0,0,0,0,1,0,0A.3.3,0,0,1,9.3,1.17Z"/><path class="cls-67" d="M2.32,5.9s0,0,.05,0-.2,0-.26-.12Z"/><path class="cls-68" d="M9.56.51,9.69.26a.63.63,0,0,1-.08.23S9.59.53,9.56.51Z"/><path class="cls-69" d="M1.35.94a.05.05,0,0,1,.06,0,.06.06,0,0,1,.06,0,.06.06,0,0,1,0,0s0,0-.06,0l0,0Z"/><path class="cls-3" d="M4.1,7.71c.07,0,.15,0,.22,0C4.27,7.79,4.17,7.7,4.1,7.71Z"/><path class="cls-70" d="M8.74,4s0-.06,0-.08,0,.12,0,.19S8.74,4,8.74,4Z"/><path class="cls-48" d="M.89,4,.94,4l0,0s.08.06.09.11h0A.26.26,0,0,1,.89,4Z"/><path class="cls-48" d="M9.18,1.8h0A.42.42,0,0,1,9,1.94v0A.19.19,0,0,1,9.18,1.8Z"/><path class="cls-71" d="M2.25,1.46s0,.07,0,.1h0C2.18,1.51,2.24,1.49,2.25,1.46Z"/><path class="cls-72" d="M1.6,5.41l0,0s-.09-.09-.11-.15.1.1.15.15Z"/><path class="cls-73" d="M1.6,1.14l0,0s0-.05,0-.07,0,0,0,0S1.65,1.13,1.6,1.14Z"/><path class="cls-12" d="M7,0H6.7A.62.62,0,0,1,7,0Z"/><path class="cls-74" d="M1,4.23s0,0,0,0a0,0,0,0,1-.05,0,0,0,0,0,1,0,0A.1.1,0,0,1,1,4.23Z"/><path class="cls-63" d="M1.2,5a.1.1,0,0,1,.05.06s0,0,0,0-.05,0-.05,0A0,0,0,0,1,1.2,5Z"/><path class="cls-75" d="M6.8,6.6l0,0h0s.07-.07.12-.08H7a0,0,0,0,1,0,0S6.87,6.59,6.8,6.6Z"/><path class="cls-50" d="M9.59,1.12v0a.3.3,0,0,1,.16-.05s0,0,0,0a.26.26,0,0,1-.12,0Z"/><path class="cls-76" d="M2.73,6.31s.08-.06.11-.1h0l.06,0c0,.07-.11.06-.14.12A0,0,0,0,1,2.73,6.31Z"/><path class="cls-77" d="M9.75,1.08v0c0-.05.07,0,.1,0s0,0-.06.05,0,.05,0,.06S9.74,1.1,9.75,1.08Z"/><path class="cls-78" d="M1.8,1.35l0,0c.09,0,.12,0,.16.1h0S1.84,1.37,1.8,1.35Z"/><path class="cls-79" d="M7.05,6.44l0-.05s.07,0,.06,0S7.08,6.43,7.05,6.44Z"/><path class="cls-80" d="M9.24.94V1a.34.34,0,0,1-.12.12,0,0,0,0,1,0,0s0,0,0,0h0S9.18.94,9.24.94Z"/><path class="cls-52" d="M.42,2.89s0,.11,0,.16,0,0,0,.08A1.2,1.2,0,0,0,.42,2.89Z"/><path class="cls-81" d="M9.25.42h0L9.41.33v0A.16.16,0,0,1,9.25.42Z"/><path class="cls-82" d="M2.23,6s0,0,0,0,0,0,0,0,0,0,0,0S2.21,6,2.23,6Z"/><path class="cls-83" d="M8.39.6l0,0s0,0,0,0l0,0s-.07,0-.07-.08h0S8.37.54,8.39.6Z"/><path class="cls-84" d="M9.41,1.79s-.05,0,0-.07,0,0,0,0S9.44,1.77,9.41,1.79Z"/><path class="cls-4" d="M7.76,5.82a.06.06,0,0,1,0-.08s0,0,0,0S7.81,5.82,7.76,5.82Z"/><path class="cls-85" d="M5.3.73s0,0,0,.05,0,0,0-.05S5.28.72,5.3.73Z"/><path class="cls-28" d="M7.63,6s0,0,0,0,0,0,0,0,0,0,0,0S7.65,6,7.63,6Z"/><path class="cls-7" d="M3.65,2.13a.16.16,0,0,1,.12,0S3.7,2.16,3.65,2.13Z"/><path class="cls-54" d="M9.47,1.12a.47.47,0,0,1-.16,0C9.35,1.09,9.41,1.12,9.47,1.12Z"/><path class="cls-37" d="M8.47,4.47v0a.24.24,0,0,0,0,.08s0,0,0,0h0C8.38,4.54,8.42,4.5,8.47,4.47Z"/><path class="cls-86" d="M.37,7.05h.1a.08.08,0,0,1,.05.05v0A.28.28,0,0,1,.37,7.05Z"/><path class="cls-87" d="M9.51.65a.29.29,0,0,1-.1.12h0c0-.06,0-.09.08-.12Z"/><path class="cls-87" d="M9.56.51l0,0s0,.09-.06.1a0,0,0,0,1,0,0S9.55.52,9.56.51Z"/><path class="cls-65" d="M9.06,1.12a.45.45,0,0,1-.12.06h0c0-.06.05,0,.08-.08s0,0,0,0A0,0,0,0,1,9.06,1.12Z"/><path class="cls-7" d="M4.73,2.38c-.06,0-.11,0-.17,0S4.68,2.33,4.73,2.38Z"/><path class="cls-7" d="M4.89,2.29c0,.08,0,.09,0,.1Z"/><path class="cls-88" d="M9.93,1h0s0,0,0-.05,0,0,0,0S9.94,1,9.93,1Z"/><path class="cls-12" d="M6,.22A.2.2,0,0,1,6.15.16h0A.11.11,0,0,1,6,.22Z"/><path class="cls-49" d="M.48,3.16a.23.23,0,0,1,0,.16A.23.23,0,0,1,.48,3.16Z"/><path class="cls-89" d="M1.25,7.42H1.19l-.06,0h0s.06,0,.08,0S1.26,7.41,1.25,7.42Z"/><path class="cls-90" d="M1.25,7.54s0,0,0,0a0,0,0,0,1,0,0s0,0,0,0Z"/><path class="cls-20" d="M1.25,4.71s-.08,0-.1,0,0,0,0,0A.08.08,0,0,1,1.25,4.71Z"/><path class="cls-53" d="M8.41,4.61l0,0s0,.1-.06.1Z"/><path class="cls-68" d="M9.55.55v0l0,.06h0a0,0,0,0,1,0-.07h0Z"/><path class="cls-8" d="M1.06,2.88s-.06,0-.08,0A.07.07,0,0,1,1.06,2.88Z"/><path class="cls-91" d="M.05,6.94H0a0,0,0,0,1,0,0H0S.05,6.92.05,6.94Z"/><path class="cls-62" d="M9.69,1.37a.24.24,0,0,1,.06-.08S9.74,1.36,9.69,1.37Z"/><path class="cls-70" d="M8.59,4.26h0s0-.08,0-.1h0Z"/><path class="cls-14" d="M4.89,1.72a.17.17,0,0,1,0,.12S4.85,1.76,4.89,1.72Z"/><path class="cls-62" d="M9.87,1.29s0,0,0,0,0,0,0,0,0,0,0,0Z"/><path class="cls-38" d="M9.41.77s0,.07-.06.08h0s0-.07.06-.08Z"/><path class="cls-92" d="M1.15,4.77h0v.08S1.12,4.8,1.15,4.77Z"/><path class="cls-3" d="M5.73,7.26a.1.1,0,0,1,.08,0A.07.07,0,0,1,5.73,7.26Z"/><path class="cls-54" d="M9.06,1.12v0s0-.05.06,0v0Z"/><path class="cls-28" d="M7,6.5v0H7S7,6.53,7,6.5Z"/><path class="cls-58" d="M2.14,1.6l0-.05a.05.05,0,0,1,.07,0Z"/><path class="cls-67" d="M2.41,6A.07.07,0,0,1,2.5,6,.14.14,0,0,1,2.41,6Z"/><path class="cls-93" d="M.62,2.05a.7.7,0,0,1-.08-.29s0,0,0-.07,0,0,0,0,0,.07.06.11,0-.12-.08-.18a.17.17,0,0,1,0-.12s0,0,.06.06a1.84,1.84,0,0,0,0-.41A.08.08,0,0,0,.59,1a0,0,0,0,1,0,0,.5.5,0,0,0,0-.12s0,0,0,0S.59.75.6.71a0,0,0,0,0,0,0A.36.36,0,0,0,.65.6s0,0,0,0H.75A.19.19,0,0,1,1,.65s0,0,0,0S.94.77,1,.82,1,.74,1,.74s.27.24.4.36-.05,0,0,.06,0,0,.05,0a0,0,0,0,1,.06,0s0,0,0,.06-.05.06,0,.08,0,0-.06,0-.14,0-.14.09v.84a1.25,1.25,0,0,1-.43,0c-.06,0-.06-.06-.07-.1s0-.1-.1,0S.66,2.07.62,2.05Z"/><path class="cls-89" d="M4.83,2.54c.07.09,0,.2,0,.3s-.06.05-.1.05H3.34c-.08,0-.11,0-.1-.09a.34.34,0,0,0,0-.1c0-.05,0-.12-.07-.13a.13.13,0,0,0,0,0,.23.23,0,0,1,.06-.29s.12,0,.13-.06a.65.65,0,0,1,.24.06c.1,0,.19,0,.29.06l.09,0s.06,0,.08,0a.17.17,0,0,0,.18,0l.11,0s0,0,.08,0a2.66,2.66,0,0,1,.28,0S4.81,2.48,4.83,2.54Z"/><path class="cls-94" d="M5.36.82c0,.08.06.12.09.18s0,0,.07,0,.06,0,.08,0,.09,0,.13,0,.12,0,.12.11q0,.51,0,1c0,.09,0,.12-.12.12H5.26c-.07,0-.1,0-.09-.11s0-.37,0-.56a.61.61,0,0,1,0-.19s0,0,0,0,0-.08,0-.11,0-.14,0-.2A.66.66,0,0,1,5.36.82Z"/><path class="cls-95" d="M3.22,2.23a.43.43,0,0,0-.06.29.2.2,0,0,1-.13,0H2.42c-.11,0-.13,0-.13-.13a.29.29,0,0,0-.06-.21c-.06-.06,0-.16,0-.24s.09,0,.14,0,.1,0,.14,0,.09,0,.13,0h0S2.7,2,2.7,2a.1.1,0,0,0,.08.1.09.09,0,0,0,.11,0c0-.06.1,0,.12,0s0,.1.07.06S3.2,2.15,3.22,2.23Z"/><path class="cls-93" d="M1.25,7.42v0a0,0,0,0,1,0-.07.1.1,0,0,0,0-.09.13.13,0,0,1,0-.08c0-.15,0-.28.22-.25h.11a.39.39,0,0,1,.3,0C2,7,2,7,2,7.13s0,.11.12.11a.16.16,0,0,1,.1,0c.08,0,0,.11,0,.16s0,.14-.15.14h-.3c-.05,0-.1,0-.14,0s-.05,0-.08,0-.23-.06-.35-.09Z"/><path class="cls-76" d="M.82,3.81s0-.07,0-.08,0,0-.06,0L.54,3.26s0,0,0,0h0s0,0,0,0a.08.08,0,0,1,.11,0,.45.45,0,0,0,.23,0,.58.58,0,0,1,.32,0v.52c0,.12,0,.13-.14.13S.94,3.79.82,3.81Z"/><path class="cls-76" d="M8.85,3.22a.54.54,0,0,1,0-.4c0-.07,0-.15,0-.23,0-.37,0-.74,0-1.12,0-.06,0-.12,0-.18s.16,0,.24,0l.08.06h0a1.24,1.24,0,0,0,.09.33s-.09.05-.06.11a.28.28,0,0,1-.1.09c-.1.06-.1.14-.1.23s0,.41,0,.61,0,.15-.06.22h0s0,0,0,0,0,.06,0,.08,0,.06,0,.09,0,.09,0,.14A0,0,0,0,1,8.85,3.22Z"/><path class="cls-76" d="M.66,2.13s.06-.08.11,0a.1.1,0,0,1,0,.12c0,.06,0,.07.09.07h.38c.06.06.14,0,.21,0s.09,0,.07.07.07.16-.07.16-.15,0-.17.12,0,0-.05,0a.1.1,0,0,0-.07.11c-.06,0-.08,0-.11-.06s0,0,0-.07.05-.05,0-.08-.05,0-.08,0S.9,2.54.87,2.49a.59.59,0,0,1-.16-.3S.64,2.18.66,2.13Z"/><path class="cls-2" d="M6.15.24a.75.75,0,0,0,.15,0c.1,0,.13,0,.13.09s0,.22,0,.33,0,.06-.07.07-.32,0-.48,0,0,0,0-.06a.11.11,0,0,0,0-.09.18.18,0,0,1,0-.19C6,.3,6.05.23,6.15.24Z"/><path class="cls-96" d="M7.78.28c0,.1-.09.12-.17.11L7,.37c-.07,0-.07,0-.08-.08s0-.18-.2-.19-.21,0-.32,0,.08-.06.13-.06l.19,0A2.09,2.09,0,0,0,7,.05a2.09,2.09,0,0,1,.66.13L7.7.2a.19.19,0,0,1,.1,0S7.8.28,7.78.28Z"/><path class="cls-89" d="M8.78.61s0,0,0,0,.08,0,.12,0h0a.16.16,0,0,1,.2,0c.07,0,0,.1,0,.17s-.07.16,0,.25,0,0,0,0A.17.17,0,0,0,9,1c-.12.05-.22,0-.23-.13A1.43,1.43,0,0,1,8.78.61Z"/><path class="cls-76" d="M2.23,7.26h-.1C2,7.26,2,7.24,2,7.13S2,7,1.89,7s-.2-.11-.31,0a.11.11,0,0,1-.11,0,1.47,1.47,0,0,0,.1-.13h0a.31.31,0,0,0,.13,0,.25.25,0,0,1,.35.12.12.12,0,0,0,.07,0,.15.15,0,0,1,.09,0A1.06,1.06,0,0,1,2.23,7.26Z"/><path class="cls-97" d="M1.29,3.2a1,1,0,0,0-.39,0H.82a.19.19,0,0,0-.22,0s0-.09,0-.14,0,.06,0,.08h0s0-.1,0-.15A.12.12,0,0,0,.5,3V2.91s.06,0,.07,0,.13,0,.2,0H.92A.24.24,0,0,1,1,3s.07,0,.09,0h0s.06,0,.07,0,0,.08,0,.09S1.29,3.17,1.29,3.2Z"/><path class="cls-98" d="M9,1.27c-.06.08-.11.09-.24,0S8.9,1.16,9,1.1l0,0a0,0,0,0,1,0,0H9l-.08.07,0,0s-.06,0-.05.05.05,0,.07,0,.08,0,.1,0a2.33,2.33,0,0,0,.28-.05.71.71,0,0,0,.29,0h0s.06,0,0,.06a.08.08,0,0,0,0,.1c0,.06-.07.09-.11.13a.09.09,0,0,1-.05,0s0,0-.06-.05,0,0-.06,0-.13,0-.19,0l-.06-.06S9.06,1.3,9,1.27Z"/><path class="cls-99" d="M5.11,1.25c.08,0,0,.08,0,.12s0,.06,0,.1c0,.21,0,.41,0,.61,0,0,0,.07,0,.1s0,.07-.09.06,0-.05,0-.08a.11.11,0,0,0,0-.09A.93.93,0,0,1,5,1.6,1.05,1.05,0,0,1,5,1.36S5.05,1.26,5.11,1.25Z"/><path class="cls-25" d="M5.11,1.25A.42.42,0,0,0,5,1.44,1.7,1.7,0,0,0,5,2.07a1.34,1.34,0,0,0,0,.35.2.2,0,0,1-.28,0,1.36,1.36,0,0,0-.2,0s-.08,0-.11,0h.15c.11,0,.22,0,.33,0S5,2.43,5,2.38a2.93,2.93,0,0,1,0-.66A1.9,1.9,0,0,1,5.18,1l0-.05L5.38.72a.16.16,0,0,1,0,.1c-.06.1-.15.17-.2.27A.3.3,0,0,0,5.11,1.25Z"/><path class="cls-100" d="M2.25,7H2.13s-.06,0-.07,0a.2.2,0,0,0-.29-.13.53.53,0,0,1-.17,0c0-.08.12-.06.18-.09l.29-.1s.07,0,.12,0S2.28,6.83,2.25,7Z"/><path class="cls-89" d="M1.68,7.52l.14,0,.2.05a.2.2,0,0,1,.17,0c.08,0,.18,0,.26,0a1.45,1.45,0,0,0,.36,0,.13.13,0,0,1,.13,0,2.53,2.53,0,0,0,.55,0c.11,0,.22,0,.33,0a.25.25,0,0,0,.12,0H4v0H4c-.11,0-.23,0-.33,0-.31,0-.63,0-.94,0a6.57,6.57,0,0,1-1-.15,4.26,4.26,0,0,1-.47-.15,1.63,1.63,0,0,1,.37.08S1.66,7.5,1.68,7.52Z"/><path class="cls-101" d="M6.15.24,5.93.36c-.11,0-.14.13-.25.14s-.07.08,0,.14,0,0,0,.08,0,0-.08,0a.19.19,0,0,0-.18,0A1.77,1.77,0,0,1,5.92.29l.22-.1s.07,0,.11,0S6.18.21,6.15.24Z"/><path class="cls-102" d="M8,5.23c0,.07-.07.1-.07.16a5.57,5.57,0,0,1-.5.59s0,0-.05,0a.3.3,0,0,1,.14-.19.24.24,0,0,0,.11-.22c.05,0,.07,0,.11,0A1.23,1.23,0,0,1,8,5.23Z"/><path class="cls-103" d="M2,4.65c-.09,0-.17-.05-.26-.06l-.29-.14a.08.08,0,0,1,.1,0c.05.07.12.06.2,0a.28.28,0,0,1,.15.06l.15.08s.05,0,.05,0a.05.05,0,0,1-.06,0v0S2,4.66,2,4.65Z"/><path class="cls-104" d="M4.71,2.44a.34.34,0,0,0,.28,0s.1,0,.07.1,0,.12-.14,0,0,0-.09,0S4.72,2.51,4.71,2.44Z"/><path class="cls-105" d="M5.54,7.25a.05.05,0,0,1-.06-.06.06.06,0,0,1,0-.06.5.5,0,0,1,.32,0A.45.45,0,0,1,5.54,7.25Z"/><path class="cls-106" d="M5.54,7.25a1.73,1.73,0,0,0,.31-.14l.08,0s0,0,0,0h0a3,3,0,0,1-.69.29h0c0-.06.1-.06.16-.07A.49.49,0,0,0,5.54,7.25Z"/><path class="cls-107" d="M6.25.18C6.16.17,6.1.24,6,.26s-.06,0-.1,0L6,.22A.28.28,0,0,0,6.16.16,4.37,4.37,0,0,1,6.68,0h.14c0,.05-.07,0-.1,0A.5.5,0,0,0,6.4.14.26.26,0,0,0,6.25.18Z"/><path class="cls-108" d="M3.9,2.31a2,2,0,0,1-.55-.14.08.08,0,0,1-.07,0h.05l.14,0,.43.12h0Z"/><path class="cls-109" d="M2.07,4.69v0l-.16,0-.27,0H1.39s-.06,0-.1,0l-.08,0c0-.06,0-.06.08-.07a1.46,1.46,0,0,0,.69,0H2S2.05,4.68,2.07,4.69Z"/><path class="cls-76" d="M1.09,4.14s0-.08,0-.12,0-.09.07-.09a.07.07,0,0,1,0,.1.28.28,0,0,0,0,.15S1.09,4.18,1.09,4.14Z"/><path class="cls-110" d="M.93,3h0a3,3,0,0,0,.43,0s0,0,0-.07.09,0,.08.07-.06,0-.1,0-.07,0-.1,0h0A.07.07,0,0,1,1,3Z"/><path class="cls-111" d="M6.94,6.46s-.06.08-.11.09,0,0,0,0l.39-.33h0A2.13,2.13,0,0,1,6.94,6.46Z"/><path class="cls-112" d="M6.66,6.66l0,.06a.69.69,0,0,0-.2.13c-.07,0-.12.1-.21.11v0h0s0,0,.08-.06a.09.09,0,0,0,0,0h0s0,0,.08,0,0,0,.08,0S6.58,6.65,6.66,6.66Z"/><path class="cls-102" d="M8.47,4.47a.2.2,0,0,0-.06.14h0s0,0,0,0,.08-.1.09-.18a1.22,1.22,0,0,1,.07-.17s0,0,0,.08S8.48,4.41,8.47,4.47Z"/><path class="cls-113" d="M8.24.47l.07.08A.39.39,0,0,1,8.14.44a.12.12,0,0,0-.1,0S8,.34,7.94.32h0v0A1.26,1.26,0,0,1,8.24.47Z"/><path class="cls-100" d="M2.39,6.51s.06.09,0,.11a.15.15,0,0,1-.2,0s0,0,0,0,.07,0,.09,0S2.35,6.49,2.39,6.51Z"/><path class="cls-114" d="M2.53,6s-.11,0-.16-.06l0,0,.23,0S2.51,5.91,2.53,6Z"/><path class="cls-115" d="M2.94,7.71a2.3,2.3,0,0,0-.37,0s-.09,0-.12,0a1.7,1.7,0,0,0,.39,0C2.89,7.65,2.93,7.65,2.94,7.71Z"/><path class="cls-116" d="M8.33.57h0a.11.11,0,0,0,.06.09s.07,0,.1,0h0a.2.2,0,0,1-.22,0C8.26.66,8.31.61,8.33.57Z"/><path class="cls-117" d="M2.25,6.58l0,0,0,0a.22.22,0,0,0-.12,0,0,0,0,0,1,0,0,2.43,2.43,0,0,1,.37-.16l0,0s0,0,0,0S2.28,6.58,2.25,6.58Z"/><path class="cls-118" d="M8.76,3.66a1.39,1.39,0,0,1-.1.33s0,0,0,0A.64.64,0,0,1,8.76,3.66Z"/><path class="cls-119" d="M8.65,4V4l-.05.17a.18.18,0,0,0,0,.1l0,0s0,0,0-.08Z"/><path class="cls-120" d="M6.21,6.93V7c0,.08-.13.1-.2.14H6l-.08,0v0s.05,0,.08,0a.1.1,0,0,1,0,0s.08,0,.12,0Z"/><path class="cls-121" d="M1.11,2.74s.07,0,.1.07l0,0s0,0,0,0l0,.06a.63.63,0,0,1-.24-.19S1.09,2.72,1.11,2.74Z"/><path class="cls-122" d="M8.85,3.22h0a2.21,2.21,0,0,1-.08.35A1,1,0,0,1,8.85,3.22Z"/><path class="cls-123" d="M4,7.69v0a.65.65,0,0,1,.28,0C4.18,7.7,4.07,7.67,4,7.69Z"/><path class="cls-124" d="M7.94.29v0c-.05,0-.12,0-.16,0l0,0h0s0,0,.05,0A.12.12,0,0,1,7.94.29Z"/><path class="cls-125" d="M.93,4a.18.18,0,0,1-.09-.1A.09.09,0,0,1,1,3.91Z"/><path class="cls-126" d="M3.94,7.67a1.22,1.22,0,0,1-.33,0H3.49a.71.71,0,0,1,.29,0Z"/><path class="cls-127" d="M1.09,4.14a.05.05,0,0,0,.06,0s0,0,0,0a0,0,0,0,1,0,0l-.12-.09S1,4.1,1,4.05,1,4.12,1.09,4.14Z"/><path class="cls-128" d="M4.63,7.58a.91.91,0,0,1-.33,0h0s.09,0,.12,0A.75.75,0,0,1,4.63,7.58Z"/><path class="cls-124" d="M7.94.32A.13.13,0,0,1,8,.39H7.9S8,.37,7.94.32Z"/><path class="cls-129" d="M2.59,6.42s.08,0,0,.06-.09,0-.12,0S2.55,6.4,2.59,6.42Z"/><path class="cls-130" d="M9.12,1l0,0A.15.15,0,0,1,9.25.87h0l0,.06S9.18,1,9.13,1Z"/><path class="cls-131" d="M1.17,4.25v0c.05,0,.11,0,.12.1h0C1.22,4.31,1.2,4.27,1.17,4.25Z"/><path class="cls-132" d="M5.06,7.46a.35.35,0,0,1-.17.06.06.06,0,0,1-.06,0A.44.44,0,0,1,5.06,7.46Z"/><path class="cls-114" d="M2.67,5.94s0-.08.05-.08a0,0,0,0,1,0,0c0,.06,0,0-.08.05Z"/><path class="cls-133" d="M2.73,6.31h0s-.1.09-.17.07l0,0S2.69,6.3,2.73,6.31Z"/><path class="cls-134" d="M1.27,4.32h0c.06,0,.13,0,.16.12A.71.71,0,0,1,1.27,4.32Z"/><path class="cls-117" d="M2.59,6.42a.09.09,0,0,0-.08,0l-.1,0a.31.31,0,0,1,.18-.09Z"/><path class="cls-135" d="M8.37,4.57s0,0,0,0l-.07.12C8.26,4.65,8.37,4.63,8.37,4.57Z"/><path class="cls-136" d="M1.64,4.77a1.14,1.14,0,0,1,.26,0v0c-.09,0-.17,0-.26,0h0Z"/><path class="cls-137" d="M2.67,1.94s-.08,0-.13,0,.06,0,.09,0S2.67,1.92,2.67,1.94Z"/><path class="cls-138" d="M1.27,2.85l0,0s0-.07,0-.06S1.3,2.82,1.27,2.85Z"/><path class="cls-102" d="M6.34,6.84H6.25c0-.06,0-.06.09,0Z"/><path class="cls-139" d="M2.19,7.64,2,7.61C2.08,7.58,2.14,7.56,2.19,7.64Z"/><path class="cls-132" d="M5.2,7.4h0a.31.31,0,0,1-.19.06S5.15,7.43,5.2,7.4Z"/><path class="cls-140" d="M7.25,6.17h0c0-.06.06-.07.1-.1a0,0,0,0,1,0,0A.19.19,0,0,1,7.25,6.17Z"/><path class="cls-102" d="M6.17,7,6.05,7a0,0,0,0,1,0,0S6.13,7,6.17,7Z"/><path class="cls-76" d="M.93,4l0,0S1,4,1,4Z"/><path class="cls-141" d="M7.33,6.1v0s0,0,.06-.07l.05,0A.31.31,0,0,1,7.33,6.1Z"/><path class="cls-142" d="M6.84,6.5v0h0l-.08,0C6.75,6.54,6.79,6.52,6.84,6.5Z"/><path class="cls-143" d="M6.5,6.76l-.08,0C6.41,6.72,6.43,6.7,6.5,6.76Z"/><path class="cls-130" d="M9,1.1v0S9.07,1,9.12,1v0a.15.15,0,0,0-.06,0Z"/><path class="cls-102" d="M6.29,6.87l-.08.06C6.19,6.85,6.25,6.87,6.29,6.87Z"/><path class="cls-144" d="M4.83,7.52h.06l0,0s-.09,0-.14,0Z"/><path class="cls-139" d="M2.35,7.58s-.07,0-.09,0S2.31,7.58,2.35,7.58Z"/><path class="cls-114" d="M2.69,6l-.1,0s.06,0,.08,0h0Z"/><path class="cls-76" d="M2.92,6.19S3,6.15,3,6.13H3A.11.11,0,0,1,2.92,6.19Z"/><path class="cls-116" d="M8.63.65a.15.15,0,0,1,.11,0A.15.15,0,0,1,8.63.65Z"/><path class="cls-145" d="M6.05,7V7a.08.08,0,0,1,0,0S6,7,6.05,7Z"/><path class="cls-146" d="M4.42,7.6s-.08,0-.12,0S4.38,7.6,4.42,7.6Z"/><path class="cls-147" d="M1.17,3a.18.18,0,0,1,.1,0h0A.05.05,0,0,1,1.17,3Z"/><path class="cls-148" d="M6,7.09c0-.06.15-.07.2-.14l.21-.1A1.14,1.14,0,0,1,6,7.09Z"/><path class="cls-149" d="M1.41,5.17A1.07,1.07,0,0,1,1.28,5a.12.12,0,0,1,.15,0c.05,0,0,.1,0,.15S1.41,5.14,1.41,5.17Z"/><path class="cls-149" d="M1.21,4.79s0-.06.08,0,0,.1,0,.16A.25.25,0,0,1,1.21,4.79Z"/><path class="cls-150" d="M1.86,5.61s0,0,0-.05,0,0,.06,0a0,0,0,0,1,0,0s0,0-.05,0Z"/><path class="cls-149" d="M1.64,4.77v0c-.08,0-.17,0-.25,0Z"/><path class="cls-151" d="M8.88,3.21h0c0-.06,0-.11,0-.16s0,0,0-.06v-.1c0-.05,0-.1,0-.15a0,0,0,0,1,0,0v.13A2,2,0,0,1,8.88,3.21Z"/><path class="cls-152" d="M3.9,2.31v0l.5.08s.1,0,.15,0H4.34a1.21,1.21,0,0,0-.19,0l-.06,0s-.08,0-.11,0Z"/><path class="cls-45" d="M3.47,2.17a.18.18,0,0,1-.14,0A.23.23,0,0,1,3.47,2.17Z"/><path class="cls-153" d="M1.11,2.74l-.06,0C1,2.66.91,2.55.83,2.48a1.7,1.7,0,0,1-.19-.35l0-.08c.08,0,0,.06,0,.08s.06,0,.07,0A.65.65,0,0,0,1,2.6a.12.12,0,0,1,.06.08S1.11,2.71,1.11,2.74Z"/><path class="cls-154" d="M1.43,1.1A2.71,2.71,0,0,1,1,.75a0,0,0,0,1,0,0h0l.06.06c.11.09.2.2.32.28l0,0Z"/><path class="cls-155" d="M1.8,1.35c.05,0,.07,0,.1.08S1.83,1.39,1.8,1.35Z"/><path class="cls-106" d="M2,6.64h0a1.53,1.53,0,0,1-.41.14s0,0-.06,0h0A1.1,1.1,0,0,1,1,6.91H.88v0a2.11,2.11,0,0,0,.56-.09A2.73,2.73,0,0,0,2,6.66Z"/><path class="cls-156" d="M.8,3,.68,3c-.05,0-.09,0-.1,0s0,0-.08,0,0-.07,0-.1.05,0,.08,0,.13.08.21.07S.82,2.93.8,3Z"/><path class="cls-156" d="M.5,3C.55,3,.56,3,.56,3v.19l0,0,0-.11s0-.07,0-.1Z"/><path class="cls-2" d="M.5,3.05s0,.06,0,.1S.5,3.08.5,3.05Z"/><path class="cls-143" d="M.8,3l0,0,.08,0V3Z"/><path class="cls-157" d="M6.72.08s.08,0,.1,0a2.06,2.06,0,0,1,.74.08h.08L7.76.2s0,0,0,0-.1,0-.15,0A2.35,2.35,0,0,0,7,.07C6.9.06,6.81.09,6.72.08Z"/><path class="cls-124" d="M7.72.22a0,0,0,0,0,0,0,.05.05,0,0,1,0,0s0,0,0,0h0Z"/><path class="cls-157" d="M7.8.26v0a.07.07,0,0,1,.06,0Z"/><path class="cls-158" d="M.48,1.6V1.49a.65.65,0,0,1,0-.24A1,1,0,0,1,.56.8h0A1,1,0,0,1,.56,1a.29.29,0,0,0,0,.09.69.69,0,0,0,0,.2V1.4c0,.05,0,.1,0,.15a.09.09,0,0,1,0,.05A0,0,0,0,1,.48,1.6Z"/><path class="cls-158" d="M.62.69v0S.61.78.59.8h0l0-.11s0,0,0-.06A0,0,0,0,1,.62.69Z"/><path class="cls-43" d="M.47,1.25v.24A.39.39,0,0,1,.47,1.25Z"/><path class="cls-43" d="M.48,1.6h0s0,0,0,0a.07.07,0,0,1,0,.06h0A.21.21,0,0,1,.48,1.6Z"/><path class="cls-159" d="M8.94,2.74h0v0h0V2c0-.07,0-.12.08-.15H9c0-.09.1-.07.13-.12s0,0,0-.05.12-.07.09-.16a0,0,0,0,1,.05,0s.07,0,.08.06-.11.11-.16.17l-.07.06L9,1.92C9,1.94,9,2,9,2v.6A.15.15,0,0,1,8.94,2.74Z"/><path class="cls-160" d="M.81.47.94.61s0,0,0,0h0C.88.6.81.57.79.49A0,0,0,0,1,.81.47Z"/><path class="cls-161" d="M.94.63v0L1,.69v0H1s0,0,0,0l0,0A0,0,0,0,1,.94.63Z"/><path class="cls-162" d="M.64.59A.19.19,0,0,1,.72.43a0,0,0,0,1,0,0A.21.21,0,0,1,.66.59h0S.65.6.64.59Z"/><path class="cls-98" d="M.64.59h0s0,.08,0,.1V.63Z"/><path class="cls-162" d="M.72.43C.78.37.78.44.81.47h0S.75.46.72.44Z"/><path class="cls-163" d="M1,6.91a4,4,0,0,0,.59-.09c0,.07,0,.09-.09.11h0c-.12,0-.23,0-.35,0H1.06a.17.17,0,0,0,0,.29s0,0,0,.05A1.66,1.66,0,0,1,.7,7.17L.52,7.11l-.06,0s0,0,0,0h0S.3,7,.31,7s0,0,.08,0H.87S.94,6.94,1,6.91Z"/><path class="cls-93" d="M1.09,7.32l0,0v0c0-.06,0-.09.09-.08s.07.06.07.11,0,.08-.1,0S1.1,7.34,1.09,7.32Z"/><path class="cls-164" d="M1.13,7.34s.08,0,.08-.06,0-.06.08,0,0,.06,0,.09,0,0,0,.06l-.08,0Z"/><path class="cls-157" d="M.42,7s0,0,0,0,0,0,0,.06l0,0Z"/><path class="cls-104" d="M9.26.88a.38.38,0,0,0-.12.1.06.06,0,0,1,0-.09c.11,0,0-.15.07-.21s0-.12-.11-.13a.27.27,0,0,0-.13,0v0H9a.28.28,0,0,0,.12,0,.11.11,0,0,1,.08,0s0,0,.06,0h0L9.41.36A2.35,2.35,0,0,0,9.65.25c0,.08,0,.15-.11.2s0,.08,0,.12h0A1.26,1.26,0,0,1,9.26.88Z"/><path class="cls-1" d="M8.94.57s-.06.08-.12,0S8.89.57,8.94.57Z"/><path class="cls-165" d="M8.51.65s-.07,0-.1,0S8.48.65,8.51.65Z"/><path class="cls-161" d="M1.11.78A.09.09,0,0,1,1.05.72.09.09,0,0,1,1.11.78Z"/><path class="cls-93" d="M9.41,1.57l-.06-.05s-.06,0,0,0,0,.09-.06.14,0,0,0,0a.05.05,0,0,1,0,0h0a.79.79,0,0,1-.1-.34s.06,0,.08,0l.11.1a.06.06,0,0,0,.1,0c.05-.07.09-.08.12,0l0,0h0s0,.06-.06.08l0,0Z"/><path class="cls-166" d="M9.57,1.41s.08-.08.1-.14a.39.39,0,0,1,.08-.1s0,0,0,0v0l0,0-.2.2h0Z"/><path class="cls-167" d="M9.47,1.53s0-.07.06-.08,0,0,0,0S9.5,1.53,9.47,1.53Z"/><path class="cls-168" d="M9.53,1.47v0s0,0,0,0v0Z"/><path class="cls-169" d="M.5,1.7V1.64a0,0,0,0,1,0,0v.08Z"/><path class="cls-170" d="M9.79,1.17h0a.09.09,0,0,1-.1,0s0-.05,0-.06.07-.05.12,0,0,0,0,0,0,0,0-.05S9.77,1.14,9.79,1.17Z"/><path class="cls-171" d="M9.24.43s0,0,0,.07a.09.09,0,0,1-.07,0s0,0,0,0A.07.07,0,0,1,9.24.43Z"/><path class="cls-30" d="M9.1.49A.14.14,0,0,1,9,.53.17.17,0,0,1,9.1.49Z"/><path class="cls-172" d="M2.07,4.69H2v0S2.09,4.64,2.07,4.69Z"/><path class="cls-173" d="M9.26.88A3.76,3.76,0,0,1,9.51.57l0,.08A.87.87,0,0,0,9.4.76L9.34.84l-.06,0Z"/><path class="cls-119" d="M.6,1V1a.08.08,0,0,1,0,.1,1.34,1.34,0,0,1,0,.49c-.09,0,0-.09-.08-.12a.11.11,0,0,1,0-.09,1.9,1.9,0,0,1,0-.34S.54,1,.6,1Z"/><path class="cls-98" d="M.6,1c-.06,0,0,.05,0,.08v.41a.2.2,0,0,1,0,.13,0,0,0,0,1,0,.06h0l0,0V1.57a.29.29,0,0,0,0-.16V1.27c0-.07,0-.14,0-.21A.19.19,0,0,1,.54,1S.55.9.58.86.59,1,.6,1Z"/><path class="cls-98" d="M.72.44S.78.46.8.48s.09.1.14.15v0C.88.58.79.6.71.61s0,0,0,0Z"/><path class="cls-174" d="M.54,1.68V1.62c.1,0,.12.1.08.21C.56,1.79.59,1.71.54,1.68Z"/><path class="cls-125" d="M1,.69a.08.08,0,0,1,0,0v0S1,.78,1,.81,1,.87,1,.87s0,0,0-.05A.13.13,0,0,1,1,.69Z"/><path class="cls-98" d="M.8.74s0,0,0,0,0,0,0,0,0,0,0,0S.81.73.8.74Z"/><path class="cls-98" d="M.6,1.12V1c.06,0,0,.05,0,.08S.62,1.12.6,1.12Z"/><path class="cls-169" d="M.58.86A.16.16,0,0,1,.54,1c0-.06,0-.11,0-.17h0s0,0,0,0h0Z"/><path class="cls-98" d="M.58.82v0s0-.07,0-.09S.65.8.58.82Z"/><path class="cls-175" d="M4.14,2.37a.44.44,0,0,1,.2,0s-.08,0-.12,0S4.13,2.45,4.14,2.37Z"/><path class="cls-176" d="M4.14,2.37s.05,0,.08,0a.13.13,0,0,1-.18,0s0,0,.06,0Z"/><path class="cls-108" d="M4.1,2.35,4,2.37,4,2.33S4.06,2.31,4.1,2.35Z"/><path class="cls-76" d="M1.29,7.25s-.05,0-.08,0,0-.08-.05-.09-.06.06-.09.09S.92,7.15,1,7.06,1,7,1.05,7a0,0,0,0,0,.06,0,.63.63,0,0,1,.36,0C1.24,6.93,1.18,7,1.29,7.25Z"/><path class="cls-177" d="M1.68,7.52l-.06,0a.05.05,0,0,1,.08,0S1.68,7.5,1.68,7.52Z"/><path class="cls-178" d="M.58,3.22l0-.16a.18.18,0,0,1,0,.22S.58,3.25.58,3.22Z"/><path class="cls-1" d="M8.92,2.72v0l0,.15,0,.06C8.89,2.87,8.8,2.77,8.92,2.72Z"/><path class="cls-179" d="M9.16,1.29c0,.05-.05,0-.08,0S9,1.32,9,1.27A.12.12,0,0,1,9.16,1.29Z"/><path class="cls-180" d="M9.18,1.68a0,0,0,0,1,0,0l-.06,0s-.05,0-.05,0S9.14,1.68,9.18,1.68Z"/><path class="cls-1" d="M8.9,3a.07.07,0,0,1,0,.06s0,0,0,0S8.88,3,8.9,3Z"/><path class="cls-179" d="M1.07,2.68S1,2.64,1,2.6s.07-.06.11,0S1.11,2.66,1.07,2.68Z"/><path class="cls-157" d="M7.53.21h0s0,0,0,0,0,0,0,0S7.52.23,7.53.21Z"/><path class="cls-147" d="M.93,3c.07,0,.12.09.2,0s0,.07-.08,0A.5.5,0,0,1,.93,3Z"/><path class="cls-181" d="M.84,3S.9,3,.89,3s0,0-.05,0,0,0,0,0S.83,3,.84,3Z"/><path class="cls-182" d="M9.65,1.18h.1s0,.07-.08.09S9.64,1.21,9.65,1.18Z"/><path class="cls-1" d="M2.25,6.58s.06,0,.1,0S2.32,6.61,2.25,6.58Z"/><path class="cls-169" d="M.52,1.06c0,.07,0,.14,0,.21S.48,1.13.52,1.06Z"/><path class="cls-169" d="M.5,1.41a.15.15,0,0,1,0,.16Z"/><path class="cls-93" d="M1.11,7c0,.06,0,0-.06,0Z"/><path class="cls-167" d="M9.46,1.42v0s0,0,0,0a0,0,0,0,1,0,0S9.44,1.42,9.46,1.42Z"/></g></g></svg>